{"title":"Bruce Almighty(2003)MPEG-4[DaScubaDude]","uid":13713722,"size":1009696999,"categoryP":"video","categoryS":"movies","magnet":"?xt=urn:btih:68a2c8d355b15ac0179c2075c067248d40862578&amp;dn=Bruce+Almighty%282003%29MPEG-4%5BDaScubaDude%5D&amp;tr=udp%3A%2F%2Ftracker.leechers-paradise.org%3A6969&amp;tr=udp%3A%2F%2Fzer0day.ch%3A1337&amp;tr=udp%3A%2F%2Fopen.demonii.com%3A1337&amp;tr=udp%3A%2F%2Ftracker.coppersurfer.tk%3A6969&amp;tr=udp%3A%2F%2Fexodus.desync.com%3A6969","seeders":0,"leechers":1,"uploader":"dascuba","files":1,"time":1456887825,"description":"Bruce Almighty (2003)\r\nPG-13 | 1h 41min | Comedy, Drama, Fantasy | 23 May 2003 (USA)\r\nA guy who complains about God too often is given almighty powers to teach him how difficult it is to run the world.\r\nDirector: Tom Shadyac\r\nWriters: Steve Koren (story), Mark O'Keefe (story) | 3 more credits »\r\nStars: Jim Carrey, Jennifer Aniston, Morgan Freeman \r\n\r\nGeneral\r\nComplete name                            : Bruce AlmightyBRUCE_ALMIGHTY_Title1.mp4\r\nFormat                                   : MPEG-4\r\nFormat profile                           : Base Media\r\nCodec ID                                 : isom\r\nFile size                                : 963 MiB\r\nDuration                                 : 1h 41mn\r\nOverall bit rate mode                    : Variable\r\nOverall bit rate                         : 1 332 Kbps\r\nMovie name                               : BRUCE_ALMIGHTY\r\nGenre                                    : Comedy\r\nWriting application                      : Lavf54.6.100\r\n\r\nVideo\r\nID                                       : 1\r\nFormat                                   : AVC\r\nFormat/Info                              : Advanced Video Codec\r\nFormat profile                           :   \r\nFormat settings, CABAC                   : No\r\nFormat settings, ReFrames                : 6 frames\r\nCodec ID                                 : avc1\r\nCodec ID/Info                            : Advanced Video Coding\r\nDuration                                 : 1h 41mn\r\nBit rate                                 : 1 198 Kbps\r\nWidth                                    : 720 pixels\r\nHeight                                   : 404 pixels\r\nDisplay aspect ratio                     : 16:9\r\nFrame rate mode                          : Constant\r\nFrame rate                               : 29.970 fps\r\nColor space                              : YUV\r\nChroma subsampling                       : 4:2:0\r\nBit depth                                : 8 bits\r\nScan type                                : Progressive\r\nBits/(Pixel*Frame)                       : 0.137\r\nStream size                              : 866 MiB (90%)\r\n\r\nAudio\r\nID                                       : 2\r\nFormat                                   : AAC\r\nFormat/Info                              : Advanced Audio Codec\r\nFormat profile                           : LC\r\nCodec ID                                 : 40\r\nDuration                                 : 1h 41mn\r\nBit rate mode                            : Variable\r\nBit rate                                 : 128 Kbps\r\nMaximum bit rate                         : 140 Kbps\r\nChannel(s)                               : 2 channels\r\nChannel positions                        : Front: L R\r\nSampling rate                            : 44.1 KHz\r\nCompression mode                         : Lossy\r\nStream size                              : 92.5 MiB (10%)","torrent":{"xt":"urn:btih:68a2c8d355b15ac0179c2075c067248d40862578","amp;dn":"Bruce+Almighty%282003%29MPEG-4%5BDaScubaDude%5D","amp;tr":["udp%3A%2F%2Ftracker.leechers-paradise.org%3A6969","udp%3A%2F%2Fzer0day.ch%3A1337","udp%3A%2F%2Fopen.demonii.com%3A1337","udp%3A%2F%2Ftracker.coppersurfer.tk%3A6969","udp%3A%2F%2Fexodus.desync.com%3A6969"],"infoHash":"68a2c8d355b15ac0179c2075c067248d40862578","infoHashBuffer":{"type":"Buffer","data":[104,162,200,211,85,177,90,192,23,156,32,117,192,103,36,141,64,134,37,120]},"announce":[],"urlList":[]}}